<svg width="44.00000000000001" height="33" xmlns="http://www.w3.org/2000/svg">
 <!-- Created with SVG Editor - http://github.com/mzalive/SVG Editor/ -->

 <g>
  <title>background</title>
  <rect fill="#fff" id="canvas_background" height="35" width="46" y="-1" x="-1"/>
  <g display="none" overflow="visible" y="0" x="0" height="100%" width="100%" id="canvasGrid">
   <rect fill="url(#gridpattern)" stroke-width="0" y="0" x="0" height="100%" width="100%"/>
  </g>
 </g>
 <g>
  <title>Layer 1</title>
  <g opacity="0.4" stroke="null" id="svg_48">
   <g stroke="null" transform="matrix(0.1916347609453214,0,0,0.19911125526103365,1.3520237501168852e-12,-69.43867003706194) " id="svg_28">
    <path stroke="null" id="svg_29" d="m230,367.638422c0,-0.263 0.181,-0.519 0.169,-0.779l-70.24,67.68l70.156,65.518c0.041,-0.468 -0.085,-0.94 -0.085,-1.418l0,-131.001z"/>
    <path stroke="null" id="svg_30" d="m149.207,444.954422l-28.674,27.588c-1.451,1.396 -3.325,2.096 -5.2,2.096c-1.836,0 -3.672,-0.67 -5.113,-2.013l-28.596,-26.647l-70.614,68.064c1.717,0.617 3.56,1.096 5.49,1.096l197.667,0c2.866,0 5.554,-0.873 7.891,-2.175l-72.851,-68.009z"/>
    <path stroke="null" id="svg_31" d="m115.251,456.810422l107.196,-103.261c-2.427,-1.443 -5.252,-2.411 -8.28,-2.411l-197.667,0c-3.943,0 -7.556,1.531 -10.37,3.866l109.121,101.806z"/>
    <path stroke="null" id="svg_32" d="m0,370.153422l0,128.484c0,1.475 0.339,2.897 0.707,4.256l69.738,-67.156l-70.445,-65.584z"/>
   </g>
   <g stroke="null" transform="matrix(0.1916347609453214,0,0,0.19911125526103365,1.3520237501168852e-12,-69.43867003706194) " id="svg_33"/>
   <g stroke="null" transform="matrix(0.1916347609453214,0,0,0.19911125526103365,1.3520237501168852e-12,-69.43867003706194) " id="svg_34"/>
   <g stroke="null" transform="matrix(0.1916347609453214,0,0,0.19911125526103365,1.3520237501168852e-12,-69.43867003706194) " id="svg_35"/>
   <g stroke="null" transform="matrix(0.1916347609453214,0,0,0.19911125526103365,1.3520237501168852e-12,-69.43867003706194) " id="svg_36"/>
   <g stroke="null" transform="matrix(0.1916347609453214,0,0,0.19911125526103365,1.3520237501168852e-12,-69.43867003706194) " id="svg_37"/>
   <g stroke="null" transform="matrix(0.1916347609453214,0,0,0.19911125526103365,1.3520237501168852e-12,-69.43867003706194) " id="svg_38"/>
   <g stroke="null" transform="matrix(0.1916347609453214,0,0,0.19911125526103365,1.3520237501168852e-12,-69.43867003706194) " id="svg_39"/>
   <g stroke="null" transform="matrix(0.1916347609453214,0,0,0.19911125526103365,1.3520237501168852e-12,-69.43867003706194) " id="svg_40"/>
   <g stroke="null" transform="matrix(0.1916347609453214,0,0,0.19911125526103365,1.3520237501168852e-12,-69.43867003706194) " id="svg_41"/>
   <g stroke="null" transform="matrix(0.1916347609453214,0,0,0.19911125526103365,1.3520237501168852e-12,-69.43867003706194) " id="svg_42"/>
   <g stroke="null" transform="matrix(0.1916347609453214,0,0,0.19911125526103365,1.3520237501168852e-12,-69.43867003706194) " id="svg_43"/>
   <g stroke="null" transform="matrix(0.1916347609453214,0,0,0.19911125526103365,1.3520237501168852e-12,-69.43867003706194) " id="svg_44"/>
   <g stroke="null" transform="matrix(0.1916347609453214,0,0,0.19911125526103365,1.3520237501168852e-12,-69.43867003706194) " id="svg_45"/>
   <g stroke="null" transform="matrix(0.1916347609453214,0,0,0.19911125526103365,1.3520237501168852e-12,-69.43867003706194) " id="svg_46"/>
   <g stroke="null" transform="matrix(0.1916347609453214,0,0,0.19911125526103365,1.3520237501168852e-12,-69.43867003706194) " id="svg_47"/>
  </g>
 </g>
</svg>